<?xml version="1.0" encoding="UTF-8"?>
<svg version="1.1" xmlns="http://www.w3.org/2000/svg" width="128" height="128">
<path d="M0 0 C0.66 0.99 1.32 1.98 2 3 C2.53625 2.34 3.0725 1.68 3.625 1 C6 -1 6 -1 8.8125 -1.5 C12.35295759 -0.9446341 14.30650986 0.24193703 17.27734375 2.12890625 C19.13392561 3.23694116 19.13392561 3.23694116 22.0625 2.9375 C26.25796159 3.02676514 27.8438461 5.35913653 31 8 C32.6396875 8.2165625 32.6396875 8.2165625 34.3125 8.4375 C38.8061244 9.12296813 41.21219315 10.91115235 44.85546875 13.51171875 C47.12753499 15.16399485 47.12753499 15.16399485 50.375 16.6875 C53.41038079 18.20519039 55.46178937 19.39049225 56.56414795 22.68707275 C57.12743104 25.67623574 57.14345121 28.5265874 57.16113281 31.56933594 C57.16858017 32.54580078 57.16858017 32.54580078 57.17617798 33.54199219 C57.19074729 35.68946402 57.19759363 37.83686192 57.203125 39.984375 C57.20888176 41.48406983 57.21463942 42.98376465 57.22039795 44.48345947 C57.23089377 47.62732281 57.23674538 50.77116068 57.24023438 53.91503906 C57.2457092 57.92747544 57.26972128 61.93957079 57.29820633 65.95190048 C57.31690816 69.05072994 57.32204235 72.14947858 57.32357025 75.24835968 C57.32658147 76.72662465 57.33455782 78.20488872 57.34775543 79.68309784 C57.4883087 96.63927227 57.4883087 96.63927227 52.1315918 103.33569336 C46.43522072 108.21726622 40.65205518 111.52187414 33.8125 114.5625 C31.77138724 115.49576126 29.73101951 116.43065367 27.69140625 117.3671875 C26.71316895 117.81288086 25.73493164 118.25857422 24.72705078 118.71777344 C22.36240124 119.82960328 20.06694267 121.00071124 17.77734375 122.2578125 C16.86408325 122.75365845 16.86408325 122.75365845 15.93237305 123.25952148 C14.38962064 124.11048678 12.85824416 124.98199163 11.328125 125.85546875 C5.6541621 127.80672595 0.10339852 128.10275257 -5.60742188 126.07348633 C-8.28017233 124.76767003 -10.82061555 123.3367541 -13.375 121.8125 C-14.30892578 121.27512207 -15.24285156 120.73774414 -16.20507812 120.18408203 C-18.16010989 119.05085856 -20.10832565 117.90580052 -22.04980469 116.74951172 C-24.97402163 115.01540558 -27.92475673 113.33572941 -30.8828125 111.66015625 C-32.75695978 110.56810443 -34.62941982 109.47315072 -36.5 108.375 C-37.36544434 107.88620361 -38.23088867 107.39740723 -39.12255859 106.89379883 C-45.72427822 102.89898232 -50.20226074 97.707512 -52.55718994 90.23101807 C-53.11177158 87.43685919 -53.14302367 84.79933264 -53.16113281 81.94970703 C-53.17074036 80.72808868 -53.1803479 79.50647034 -53.19024658 78.24783325 C-53.19449646 76.9311264 -53.19874634 75.61441956 -53.203125 74.2578125 C-53.20888162 72.8878479 -53.21463928 71.5178833 -53.22039795 70.1479187 C-53.23088849 67.27813341 -53.236744 64.40837597 -53.24023438 61.53857422 C-53.24571777 57.87119623 -53.26975028 54.20418973 -53.29820633 50.53692818 C-53.3168792 47.70753927 -53.32204075 44.8782391 -53.32357025 42.04879379 C-53.32804758 40.04250535 -53.34666929 38.0362645 -53.36553955 36.03005981 C-53.36253845 34.80213715 -53.35953735 33.57421448 -53.35644531 32.30908203 C-53.36009094 31.23304718 -53.36373657 30.15701233 -53.36749268 29.04837036 C-52.64475719 23.05324292 -49.76870151 19.18799271 -45.2265625 15.515625 C-38.9735737 11.25920455 -32.14688398 8.36613255 -25 6 C-24.30648437 5.64808594 -23.61296875 5.29617187 -22.8984375 4.93359375 C-20.79991751 3.90160553 -18.92045361 3.48534672 -16.625 3.0625 C-13.56511356 2.44150832 -11.62945726 1.80383032 -8.8125 0.3125 C-5.34814541 -1.30419881 -3.60980247 -1.14857351 0 0 Z " fill="#F57930" transform="translate(62,1)"/>
<path d="M0 0 C2.92504883 1.20581055 2.92504883 1.20581055 5.95703125 2.88671875 C7.07013672 3.49580078 8.18324219 4.10488281 9.33007812 4.73242188 C10.47927734 5.37759766 11.62847656 6.02277344 12.8125 6.6875 C13.95009766 7.31333984 15.08769531 7.93917969 16.25976562 8.58398438 C19.51354401 10.37703594 22.75744747 12.18674149 26 14 C30.455 16.475 30.455 16.475 35 19 C35 49.69 35 80.38 35 112 C30.76074075 111.15214815 28.64454974 110.46081055 25.04296875 108.41015625 C24.10251709 107.87817627 23.16206543 107.34619629 22.19311523 106.7980957 C21.20126221 106.22534912 20.20940918 105.65260254 19.1875 105.0625 C17.6562146 104.1811438 17.6562146 104.1811438 16.09399414 103.28198242 C14.02965493 102.08863001 11.96769563 100.89115066 9.90820312 99.68945312 C7.33092768 98.19224475 4.73900995 96.72571157 2.140625 95.265625 C-6.18861578 90.47270115 -12.58656492 85.82840198 -15.54290771 76.23898315 C-16.11429919 73.4401263 -16.14297325 70.80726617 -16.16113281 67.94970703 C-16.17074036 66.72808868 -16.1803479 65.50647034 -16.19024658 64.24783325 C-16.19449646 62.9311264 -16.19874634 61.61441956 -16.203125 60.2578125 C-16.20888162 58.8878479 -16.21463928 57.5178833 -16.22039795 56.1479187 C-16.23088849 53.27813341 -16.236744 50.40837597 -16.24023438 47.53857422 C-16.24571777 43.87119623 -16.26975028 40.20418973 -16.29820633 36.53692818 C-16.3168792 33.70753927 -16.32204075 30.8782391 -16.32357025 28.04879379 C-16.32804758 26.04250535 -16.34666929 24.0362645 -16.36553955 22.03005981 C-16.36253845 20.80213715 -16.35953735 19.57421448 -16.35644531 18.30908203 C-16.36009094 17.23304718 -16.36373657 16.15701233 -16.36749268 15.04837036 C-15.75250781 9.94703973 -13.54839615 5.97998562 -9.6875 2.625 C-9.13449219 2.12226563 -8.58148438 1.61953125 -8.01171875 1.1015625 C-5.17679232 -0.45076615 -3.21130025 -0.2465587 0 0 Z " fill="#384351" transform="translate(25,15)"/>
<path d="M0 0 C0.66 0.99 1.32 1.98 2 3 C2.53625 2.34 3.0725 1.68 3.625 1 C6 -1 6 -1 8.8125 -1.5 C12.35295759 -0.9446341 14.30650986 0.24193703 17.27734375 2.12890625 C19.13392561 3.23694116 19.13392561 3.23694116 22.0625 2.9375 C26.25796159 3.02676514 27.8438461 5.35913653 31 8 C32.6396875 8.2165625 32.6396875 8.2165625 34.3125 8.4375 C39.48235251 9.22612157 42.86145261 11.93128118 47 15 C43.60869988 17.26086675 40.05492617 18.93735625 36.375 20.66015625 C35.63169434 21.0100914 34.88838867 21.36002655 34.12255859 21.7205658 C32.5529534 22.45883098 30.98278971 23.19590976 29.41210938 23.93188477 C27.00764636 25.05891596 24.60526728 26.19029788 22.203125 27.32226562 C20.67720547 28.03932246 19.15116775 28.75612785 17.625 29.47265625 C16.90618652 29.81120132 16.18737305 30.1497464 15.44677734 30.49855042 C9.01035101 33.50953748 3.05652824 35.63133039 -3.9937439 33.35678101 C-5.94375375 32.44997949 -7.80056011 31.45311731 -9.66796875 30.38671875 C-10.35127762 30.01650101 -11.03458649 29.64628326 -11.73860168 29.2648468 C-13.89830844 28.08977105 -16.04272369 26.88957062 -18.1875 25.6875 C-19.63641083 24.89213078 -21.08627478 24.09849526 -22.53710938 23.30664062 C-25.20560698 21.84889608 -27.86721634 20.37978176 -30.52416992 18.90112305 C-33.65028552 17.19127812 -36.80163473 15.56958234 -40 14 C-36.16919329 10.4245804 -32.23295837 8.73093363 -27.40234375 6.9296875 C-25.02431601 6.06012899 -25.02431601 6.06012899 -22.96484375 4.94140625 C-20.83868241 3.92270867 -18.93909987 3.48878155 -16.625 3.0625 C-13.56511356 2.44150832 -11.62945726 1.80383032 -8.8125 0.3125 C-5.34814541 -1.30419881 -3.60980247 -1.14857351 0 0 Z " fill="#82ABA6" transform="translate(62,1)"/>
<path d="M0 0 C-0.474375 0.37125 -0.94875 0.7425 -1.4375 1.125 C-5.02471207 5.42965449 -4.1600307 12.01602816 -4.18945312 17.3762207 C-4.20189308 18.60407539 -4.20189308 18.60407539 -4.21458435 19.85673523 C-4.23191152 21.62456196 -4.24709795 23.39241071 -4.26036072 25.1602726 C-4.28146691 27.9544981 -4.30847843 30.74861173 -4.33703613 33.54277039 C-4.4067017 40.47574255 -4.46641584 47.40879351 -4.52606201 54.34185791 C-4.57690615 60.21311091 -4.63167128 66.08430063 -4.69187927 71.95546532 C-4.7185231 74.71478293 -4.73928768 77.47410632 -4.7598877 80.23347473 C-4.77648029 81.91257007 -4.7933512 83.59166268 -4.81054688 85.27075195 C-4.81473129 86.04319244 -4.81891571 86.81563293 -4.82322693 87.61148071 C-4.88614394 92.88614394 -4.88614394 92.88614394 -6 94 C-8.97 94 -11.94 94 -15 94 C-14.67 63.31 -14.34 32.62 -14 1 C-2 -1 -2 -1 0 0 Z " fill="#F2822B" transform="translate(74,34)"/>
<path d="M0 0 C2.62647863 1.76189688 4.84632237 3.6983512 7.0234375 5.98828125 C5.79947917 6.5390625 4.57552083 7.08984375 3.3515625 7.640625 C2.55145752 8.00099854 1.75135254 8.36137207 0.92700195 8.73266602 C-0.85993902 9.53612361 -2.64788428 10.3373509 -4.43676758 11.13647461 C-9.13061995 13.23707917 -13.80267304 15.36989655 -18.44140625 17.58984375 C-19.31764648 18.00242432 -20.19388672 18.41500488 -21.09667969 18.84008789 C-22.76665209 19.62759199 -24.4305207 20.42821789 -26.08691406 21.24389648 C-27.24465332 21.78445679 -27.24465332 21.78445679 -28.42578125 22.3359375 C-29.08924561 22.65570557 -29.75270996 22.97547363 -30.4362793 23.30493164 C-37.66977406 25.25077997 -43.27390819 24.01299498 -49.64453125 20.375 C-50.32784012 20.00478226 -51.01114899 19.63456451 -51.71516418 19.25312805 C-53.87487094 18.0780523 -56.01928619 16.87785187 -58.1640625 15.67578125 C-59.61297333 14.88041203 -61.06283728 14.08677651 -62.51367188 13.29492188 C-65.18216948 11.83717733 -67.84377884 10.36806301 -70.50073242 8.8894043 C-73.62684802 7.17955937 -76.77819723 5.55786359 -79.9765625 3.98828125 C-75.33544542 0.20210679 -73.08866722 -1.62568864 -66.9765625 -1.01171875 C-63.71018125 0.25323994 -60.67647037 1.88037139 -57.6015625 3.55078125 C-56.78945313 3.96908203 -55.97734375 4.38738281 -55.140625 4.81835938 C-47.89128267 8.68119003 -40.66055824 13.39004003 -36.9765625 20.98828125 C-36.4609375 20.12203125 -35.9453125 19.25578125 -35.4140625 18.36328125 C-30.5573066 11.15536383 -23.06847037 6.91291408 -15.6015625 2.80078125 C-14.25964844 1.99157227 -14.25964844 1.99157227 -12.890625 1.16601562 C-7.93450964 -1.54616088 -5.17526116 -2.78659853 0 0 Z " fill="#F6F4DC" transform="translate(101.9765625,11.01171875)"/>
<path d="M0 0 C0.66 0.99 1.32 1.98 2 3 C2.53625 2.34 3.0725 1.68 3.625 1 C6 -1 6 -1 8.75 -1.5625 C13.14171059 -0.80239624 16.58435644 1.13918179 20 4 C20 4.66 20 5.32 20 6 C19.154375 6.53625 18.30875 7.0725 17.4375 7.625 C9.29413574 12.88064644 5.69405149 19.89711793 3 29 C2.67 29 2.34 29 2 29 C1.86464844 28.45472656 1.72929688 27.90945312 1.58984375 27.34765625 C-1.14404411 17.77086346 -6.6600583 11.27628965 -15 6 C-13.85192149 2.55576447 -13.40141128 2.32681566 -10.3125 0.75 C-6.5279387 -1.02337612 -4.05611667 -1.4486131 0 0 Z " fill="#F1F0D6" transform="translate(62,1)"/>
<path d="M0 0 C-0.474375 0.37125 -0.94875 0.7425 -1.4375 1.125 C-4.93545992 5.32255191 -4.193322 11.7742408 -4.31640625 17.0234375 C-4.33718735 17.76961334 -4.35796844 18.51578918 -4.37937927 19.28457642 C-4.4443123 21.64796508 -4.50349571 24.01145664 -4.5625 26.375 C-4.60573884 27.98568735 -4.64935477 29.59636463 -4.69335938 31.20703125 C-4.79993526 35.13791771 -4.90135792 39.06890677 -5 43 C-5.94875 42.95875 -6.8975 42.9175 -7.875 42.875 C-11.10244856 42.65026182 -11.10244856 42.65026182 -13 45 C-14.14315747 42.71368506 -14.12112732 41.45652594 -14.11352539 38.91748047 C-14.11344986 38.07675995 -14.11337433 37.23603943 -14.11329651 36.36984253 C-14.10813522 35.46146637 -14.10297394 34.55309021 -14.09765625 33.6171875 C-14.0962413 32.68778351 -14.09482635 31.75837952 -14.09336853 30.80081177 C-14.08776053 27.82550876 -14.07520668 24.85028036 -14.0625 21.875 C-14.05748603 19.86067817 -14.05292295 17.84635516 -14.04882812 15.83203125 C-14.0377885 10.88799198 -14.02051849 5.94400865 -14 1 C-12.04310963 0.63794536 -10.08442332 0.28558579 -8.125 -0.0625 C-7.03445312 -0.25972656 -5.94390625 -0.45695312 -4.8203125 -0.66015625 C-2 -1 -2 -1 0 0 Z " fill="#F9A226" transform="translate(74,34)"/>
<path d="M0 0 C2.5 2 2.5 2 5 5 C5.56847656 5.61617187 6.13695313 6.23234375 6.72265625 6.8671875 C12.36609308 13.02584255 16.0006892 18.83614758 18 27 C17.01 27.495 17.01 27.495 16 28 C15.75507812 27.50371094 15.51015625 27.00742187 15.2578125 26.49609375 C9.28273427 15.63793434 -2.28086493 11.11656447 -13 6 C-14.33505708 5.33679203 -15.66929905 4.67190565 -17 4 C-16.0925 3.71125 -15.185 3.4225 -14.25 3.125 C-11.14283493 2.16567965 -11.14283493 2.16567965 -9.0625 0.875 C-5.85038573 -0.48771515 -3.44463657 -0.42302554 0 0 Z " fill="#94B9B1" transform="translate(48,5)"/>
<path d="M0 0 C-0.474375 0.37125 -0.94875 0.7425 -1.4375 1.125 C-3.52205802 3.62646962 -3.64621491 5.81593418 -4 9 C-4.33 9 -4.66 9 -5 9 C-5 6.69 -5 4.38 -5 2 C-7.64 2 -10.28 2 -13 2 C-13 15.53 -13 29.06 -13 43 C-13.33 43 -13.66 43 -14 43 C-14 29.14 -14 15.28 -14 1 C-2 -1 -2 -1 0 0 Z " fill="#EFA335" transform="translate(74,34)"/>
<path d="M0 0 C0.66 0 1.32 0 2 0 C2 6.93 2 13.86 2 21 C1.67 21 1.34 21 1 21 C-1.07726572 13.66847392 -0.94351599 7.53537771 0 0 Z " fill="#F9F6E5" transform="translate(63,9)"/>
<path d="M0 0 C0.66 0.33 1.32 0.66 2 1 C1.525625 1.37125 1.05125 1.7425 0.5625 2.125 C-1.52205802 4.62646962 -1.64621491 6.81593418 -2 10 C-2.33 10 -2.66 10 -3 10 C-3 7.03 -3 4.06 -3 1 C-2.01 0.67 -1.02 0.34 0 0 Z " fill="#F48E3C" transform="translate(72,33)"/>
</svg>
